<svg xmlns="http://www.w3.org/2000/svg" zoomAndPan="magnify" viewBox="0 0 1440 960" preserveAspectRatio="xMidYMid meet" version="1.0">
  <defs>
    <clipPath id="1autU3lWS6qga">
      <path d="M554 321h298v411.063H554zm0 0" clip-rule="nonzero"/>
    </clipPath>
    <clipPath id="1autU3lWS6qgb">
      <path d="M695 228.063h19V290h-19zm0 0" clip-rule="nonzero"/>
    </clipPath>
  </defs>
  <path fill="#fff" fill-opacity="1" d="M-144-96h1728v1152H-144z"/>
  <path fill="#191b57" fill-opacity="1" d="M-144-96h1728v1152H-144z"/>
  <g clip-path="url(#1autU3lWS6qga)">
    <path fill="#fff" d="M702.941 321.188c-2.14.015-4.277.078-6.41.183-2.136.11-4.265.262-6.394.461a150.276 150.276 0 00-12.703 1.738 149.14 149.14 0 00-12.508 2.824 150.051 150.051 0 00-29.809 11.629 150.562 150.562 0 00-11.113 6.395 147.135 147.135 0 00-5.34 3.55 145.04 145.04 0 00-5.184 3.774 149.952 149.952 0 00-14.516 12.605 150.301 150.301 0 00-4.46 4.606 149.77 149.77 0 00-4.262 4.79 145.043 145.043 0 00-4.05 4.972 147.025 147.025 0 00-7.445 10.434 150.54 150.54 0 00-3.384 5.449 147.83 147.83 0 00-6.043 11.305 147.89 147.89 0 00-5.054 11.785 147.79 147.79 0 00-2.145 6.042c-.672 2.028-1.3 4.07-1.883 6.13a149.146 149.146 0 00-5.39 31.543c-.133 2.132-.22 4.269-.262 6.406a150.528 150.528 0 00.867 19.203 151.396 151.396 0 001.95 12.672c.413 2.097.87 4.183 1.378 6.261a147.692 147.692 0 003.555 12.32 152.013 152.013 0 004.598 11.965 149.46 149.46 0 002.68 5.825 153.933 153.933 0 002.929 5.707 147.008 147.008 0 006.574 11.004 149.84 149.84 0 003.637 5.285 148.594 148.594 0 003.855 5.12 154.782 154.782 0 004.075 4.95 154.899 154.899 0 004.285 4.774 150.294 150.294 0 0014.02 13.152 144.912 144.912 0 005.034 3.969 150.605 150.605 0 0010.555 7.277 156.173 156.173 0 005.504 3.289 148.058 148.058 0 005.64 3.05 147.63 147.63 0 0011.64 5.367l.001 67.712a55.844 55.844 0 004.23 21.281 54.66 54.66 0 002.333 4.934 55.118 55.118 0 006.05 9.066 55.254 55.254 0 003.66 4.047 55.548 55.548 0 008.422 6.922 54.499 54.499 0 004.676 2.812 56.06 56.06 0 004.93 2.34 55.846 55.846 0 0010.43 3.176c1.785.36 3.586.629 5.394.809a56.45 56.45 0 005.453.277 56.796 56.796 0 005.454-.277 54.68 54.68 0 005.398-.809 55.846 55.846 0 0010.434-3.176 56.376 56.376 0 004.937-2.336 56.217 56.217 0 009.066-6.066 56.996 56.996 0 004.043-3.664 55.61 55.61 0 006.922-8.434 55.545 55.545 0 002.809-4.68 56.338 56.338 0 002.34-4.933 55.921 55.921 0 003.176-10.438 55.285 55.285 0 001.082-10.852V609a145.28 145.28 0 005.882-2.559 150.92 150.92 0 0011.407-5.859 153.907 153.907 0 005.504-3.293 150.605 150.605 0 005.355-3.527 148.757 148.757 0 005.203-3.75 149.777 149.777 0 0023.34-21.902 149.823 149.823 0 0014.973-20.794 151.067 151.067 0 006.098-11.281 148.329 148.329 0 005.105-11.762 149.984 149.984 0 004.082-12.156 153.95 153.95 0 001.644-6.199 157.18 157.18 0 001.38-6.266 150.32 150.32 0 002.792-25.468c.051-2.137.055-4.278.012-6.414a151.481 151.481 0 00-.797-12.797 150.589 150.589 0 00-3.246-18.953 147.592 147.592 0 00-1.621-6.204 146.1 146.1 0 00-4.031-12.175 147.633 147.633 0 00-5.059-11.782 145.298 145.298 0 00-2.902-5.718 150.66 150.66 0 00-6.532-11.04 148.732 148.732 0 00-7.453-10.434 146.25 146.25 0 00-8.316-9.758 155.203 155.203 0 00-4.465-4.604 150.366 150.366 0 00-14.523-12.602 148.802 148.802 0 00-5.188-3.773 152.353 152.353 0 00-5.34-3.547 145.193 145.193 0 00-5.492-3.313 148.038 148.038 0 00-17.25-8.492 149.994 149.994 0 00-12.047-4.398 147.61 147.61 0 00-6.152-1.805 149.27 149.27 0 00-25.219-4.55c-2.129-.2-4.258-.348-6.394-.458a152.646 152.646 0 00-6.41-.18zm-37.988 334.156h76.063v19.433h-76.063zm37.988 59.09a37.583 37.583 0 01-14.304-3.02 37.765 37.765 0 01-12.078-8.234 35.594 35.594 0 01-8.176-10.817h69.203a37.78 37.78 0 01-2.582 4.797 38.201 38.201 0 01-3.242 4.38 38.178 38.178 0 01-3.836 3.87 38.684 38.684 0 01-4.352 3.281 38.278 38.278 0 01-4.773 2.625 38.36 38.36 0 01-5.102 1.914 38.169 38.169 0 01-5.324 1.165c-1.8.261-3.613.39-5.434.39zm43.965-120.207c-.855.3-1.648.722-2.375 1.27a8.737 8.737 0 00-1.883 1.929 8.695 8.695 0 00-1.207 2.406 8.692 8.692 0 00-.425 2.66v35.176H710.68v-86l39.832-16.008-6.594-16.265-42.031 16.796-42.121-16.796-6.508 16.265 39.832 16.008v86.262h-28.137v-35.172a8.654 8.654 0 00-.426-2.66 8.717 8.717 0 00-1.207-2.41 8.822 8.822 0 00-1.883-1.93 8.708 8.708 0 00-2.378-1.266 132.183 132.183 0 01-20.993-9.562 134.025 134.025 0 01-6.586-3.985 135.133 135.133 0 01-6.343-4.363 128.964 128.964 0 01-6.074-4.727 132.12 132.12 0 01-5.793-5.07 127.746 127.746 0 01-5.485-5.402 132.432 132.432 0 01-5.164-5.711 129.51 129.51 0 01-4.816-6.004 132.224 132.224 0 01-8.55-12.797 131.344 131.344 0 01-6.996-13.703 131.021 131.021 0 01-5.357-14.43 128.691 128.691 0 01-2.039-7.422 134.407 134.407 0 01-1.601-7.53 132.813 132.813 0 01-1.871-15.277 132.87 132.87 0 01-.266-7.693 133.04 133.04 0 01.82-15.367 131.456 131.456 0 014.563-22.613 133.256 133.256 0 015.203-14.484 136.093 136.093 0 013.226-6.989 133.173 133.173 0 013.633-6.789 128.166 128.166 0 014.02-6.562 128.36 128.36 0 014.394-6.32 131.656 131.656 0 014.754-6.055 134.765 134.765 0 015.102-5.766 132.064 132.064 0 0117.2-15.375 128.383 128.383 0 016.296-4.43 129.23 129.23 0 016.543-4.05 131.526 131.526 0 016.77-3.668 132.931 132.931 0 0114.125-6.113 131.04 131.04 0 0114.738-4.426 132.022 132.022 0 0115.152-2.684 132.67 132.67 0 0115.363-.898 133.079 133.079 0 0115.364.898c2.55.3 5.09.672 7.617 1.121 2.527.445 5.039.965 7.539 1.563a131.36 131.36 0 0121.887 7.276c2.359 1.02 4.68 2.11 6.972 3.263a129.918 129.918 0 016.77 3.668 131.105 131.105 0 0118.87 13.27 132.064 132.064 0 0111.169 10.585 132.13 132.13 0 0114.254 18.14 133.955 133.955 0 014.02 6.563 136.269 136.269 0 013.628 6.79 131.013 131.013 0 016.04 14.156 130.041 130.041 0 014.35 14.761c.583 2.5 1.09 5.016 1.524 7.547.434 2.527.793 5.07 1.082 7.621.285 2.551.496 5.11.633 7.672.137 2.563.195 5.129.184 7.695a129.47 129.47 0 01-.266 7.692 129.42 129.42 0 01-.71 7.668 131.969 131.969 0 01-2.763 15.14 131.89 131.89 0 01-2.035 7.422 133.339 133.339 0 01-5.355 14.43 134.56 134.56 0 01-3.301 6.953 132.153 132.153 0 01-12.246 19.547 132.232 132.232 0 01-9.98 11.715 130.143 130.143 0 01-5.489 5.402 129.787 129.787 0 01-5.789 5.07 131.12 131.12 0 01-12.422 9.09 131.503 131.503 0 01-13.395 7.578 129.986 129.986 0 01-7.003 3.192 130.949 130.949 0 01-7.18 2.777zm0 0" fill-opacity="1" fill-rule="nonzero"/>
  </g>
  <path fill="#fff" d="M806.617 438.316a100.567 100.567 0 00-6.906-16.195 100.668 100.668 0 00-21.652-27.59 100.778 100.778 0 00-14.09-10.558l-8.793 14.863a80 80 0 013.707 2.453 84.97 84.97 0 016.996 5.48 84.998 84.998 0 013.266 3.016 82.295 82.295 0 013.101 3.188 82.252 82.252 0 012.93 3.343 84.331 84.331 0 015.297 7.137 85.574 85.574 0 014.504 7.664 85.635 85.635 0 011.937 4 85.767 85.767 0 011.723 4.102 87.32 87.32 0 011.5 4.183 85.87 85.87 0 011.273 4.262 81.78 81.78 0 011.043 4.32 82.722 82.722 0 011.39 8.778 83.461 83.461 0 01.442 8.879 80.31 80.31 0 01-.137 4.445 79.954 79.954 0 01-.37 4.43 83.364 83.364 0 01-2.528 13.082 84.709 84.709 0 01-2.836 8.425 87.422 87.422 0 01-1.754 4.086 83.766 83.766 0 01-1.969 3.985 81.986 81.986 0 01-7.136 11.25 85.142 85.142 0 01-2.77 3.48l13.102 11.254a99.792 99.792 0 0013.82-21.324 99.953 99.953 0 009.652-36.742c.278-4.246.29-8.489.028-12.735a100.155 100.155 0 00-4.77-24.96zm0 0" fill-opacity="1" fill-rule="nonzero"/>
  <g clip-path="url(#1autU3lWS6qgb)">
    <path fill="#fff" d="M695.992 228.414h17.59v60.941h-17.59zm0 0" fill-opacity="1" fill-rule="nonzero"/>
  </g>
  <path fill="#fff" d="M841.594 340.48l39.277-46.593 13.445 11.336-39.277 46.59zM525.375 659.54l39.277-46.59 13.446 11.331-39.274 46.594zm323.727-55.59l11.34-13.442L907.02 629.8l-11.34 13.441zm-319.086-316.2l11.34-13.441 46.578 39.293-11.34 13.445zm383.507 167.086l60.723-5.152 1.484 17.523-60.718 5.152zm-449.242 2.012l60.723-5.153 1.484 17.524-60.718 5.152zm0 0" fill-opacity="1" fill-rule="nonzero"/>
</svg>
