<svg xmlns="http://www.w3.org/2000/svg" zoomAndPan="magnify" viewBox="0 0 1440 960" preserveAspectRatio="xMidYMid meet" version="1.0">
  <defs>
    <clipPath id="knxuSwMki8ixa">
      <path d="M468.063 505h503.574v48H468.063zm0 0" clip-rule="nonzero"/>
    </clipPath>
    <clipPath id="knxuSwMki8ixb">
      <path d="M468.063 457h503.574v32H468.063zm0 0" clip-rule="nonzero"/>
    </clipPath>
    <clipPath id="knxuSwMki8ixc">
      <path d="M468.063 418h503.574v18H468.063zm0 0" clip-rule="nonzero"/>
    </clipPath>
    <clipPath id="knxuSwMki8ixd">
      <path d="M468.063 562h503.574v79.031H468.063zm0 0" clip-rule="nonzero"/>
    </clipPath>
    <clipPath id="knxuSwMki8ixe">
      <path d="M468.063 385h503.574v8H468.063zm0 0" clip-rule="nonzero"/>
    </clipPath>
    <clipPath id="knxuSwMki8ixf">
      <path d="M468.063 225h503.574v48H468.063zm0 0" clip-rule="nonzero"/>
    </clipPath>
    <clipPath id="knxuSwMki8ixg">
      <path d="M468.063 289h503.574v32H468.063zm0 0" clip-rule="nonzero"/>
    </clipPath>
    <clipPath id="knxuSwMki8ixh">
      <path d="M468.063 342h503.574v18H468.063zm0 0" clip-rule="nonzero"/>
    </clipPath>
    <clipPath id="knxuSwMki8ixi">
      <path d="M468.063 137.457h503.574V217H468.063zm0 0" clip-rule="nonzero"/>
    </clipPath>
    <clipPath id="knxuSwMki8ixj">
      <path d="M576 329.527h288v106.79H576zm0 0" clip-rule="nonzero"/>
    </clipPath>
  </defs>
  <path fill="#fff" fill-opacity="1" d="M-144-96h1728v1152H-144z"/>
  <path fill="#191b57" fill-opacity="1" d="M-144-96h1728v1152H-144z"/>
  <g clip-path="url(#knxuSwMki8ixa)">
    <path fill="#fff" d="M968.21 505.977h-86.4c-19.188 0-35.32 7.425-49.516 13.988-11.719 5.363-21.79 10.027-31.648 10.027-10.028 0-21.004-4.992-32.598-10.273-14.156-6.438-30.164-13.742-48.195-13.742-22.368 0-35.528 11.925-47.125 22.406-10.438 9.488-19.477 17.66-33.668 17.66-14.032 0-22.778-8.047-32.887-17.29-11.598-10.687-24.8-22.776-48.277-22.776-27.938 0-46.465 13.492-62.762 25.418-8.543 6.23-16.63 12.09-24.719 14.812-1.812.578-2.762 2.52-2.187 4.332a3.447 3.447 0 003.261 2.356c.371 0 .742-.086 1.075-.168 9.117-3.051 17.617-9.243 26.613-15.801 15.472-11.309 33.012-24.098 58.719-24.098 20.835 0 32.43 10.645 43.656 20.961 10.23 9.406 20.793 19.106 37.508 19.106 16.832 0 27.726-9.864 38.25-19.395 11.222-10.152 22.816-20.672 42.543-20.672 16.546 0 31.195 6.684 45.347 13.121 12.297 5.61 23.93 10.89 35.446 10.89 11.347 0 22.609-5.155 34.496-10.644 14.234-6.562 28.964-13.367 46.668-13.367h86.402a3.418 3.418 0 003.426-3.426 3.418 3.418 0 00-3.426-3.425" fill-opacity="1" fill-rule="nonzero"/>
  </g>
  <g clip-path="url(#knxuSwMki8ixb)">
    <path fill="#fff" d="M968.21 457.906h-86.4c-18.899 0-34.91 4.414-49.02 8.336-11.309 3.133-21.996 6.063-32.144 6.063-10.278 0-21.375-3.012-33.094-6.23-14.07-3.837-29.957-8.169-47.7-8.169-21.91 0-34.949 7.098-46.464 13.328-10.11 5.528-19.68 10.688-34.328 10.688-14.485 0-23.317-4.828-33.547-10.48-11.516-6.356-24.594-13.536-47.617-13.536-27.567 0-45.926 8.047-62.145 15.14-8.582 3.759-16.668 7.306-24.922 8.958a3.435 3.435 0 00-2.683 4.043c.332 1.61 1.734 2.765 3.343 2.765.207 0 .453-.042.66-.082 8.997-1.816 17.454-5.488 26.368-9.41 15.597-6.808 33.257-14.566 59.379-14.566 21.289 0 33.007 6.437 44.316 12.71 10.601 5.817 20.59 11.349 36.848 11.349 16.379 0 27.191-5.86 37.59-11.555 11.347-6.149 23.023-12.504 43.203-12.504 16.832 0 31.605 4.043 45.882 7.965 12.172 3.3 23.684 6.476 34.91 6.476 11.06 0 22.2-3.093 34-6.351 13.657-3.797 29.172-8.09 47.165-8.09h86.402a3.418 3.418 0 003.426-3.426 3.417 3.417 0 00-3.426-3.422" fill-opacity="1" fill-rule="nonzero"/>
  </g>
  <g clip-path="url(#knxuSwMki8ixc)">
    <path fill="#fff" d="M968.21 418.828h-86.4c-18.653 0-34.496 1.86-48.485 3.469-11.472 1.32-22.281 2.555-32.68 2.555-10.566 0-21.789-1.278-33.628-2.641-13.907-1.566-29.668-3.383-47.164-3.383-21.418 0-33.715 2.809-45.598 5.488-10.317 2.352-20.055 4.54-35.195 4.54-14.98 0-24.43-2.145-34.414-4.458-11.926-2.722-24.223-5.57-46.75-5.57-27.153 0-45.31 3.344-61.36 6.274-8.664 1.566-16.879 3.054-25.336 3.753a3.43 3.43 0 00-3.137 3.715 3.452 3.452 0 003.426 3.137h.29c8.788-.742 17.124-2.27 25.995-3.879 15.72-2.848 33.586-6.11 60.122-6.11 21.785 0 33.668 2.727 45.222 5.368 10.356 2.39 20.176 4.621 35.942 4.621 15.925 0 26.035-2.27 36.722-4.707 11.512-2.598 23.395-5.281 44.07-5.281 17.083 0 31.977 1.691 46.38 3.3 12.046 1.407 23.476 2.684 34.414 2.684 10.808 0 21.785-1.277 33.464-2.598 13.82-1.609 29.461-3.386 47.7-3.386h86.402c1.898 0 3.426-1.567 3.426-3.465 0-1.856-1.528-3.426-3.426-3.426" fill-opacity="1" fill-rule="nonzero"/>
  </g>
  <g clip-path="url(#knxuSwMki8ixd)">
    <path fill="#fff" d="M968.21 562.055h-86.4c-18.32 0-31.485 9.777-44.196 19.187-11.676 8.664-22.734 16.875-36.968 16.875-13.536 0-22.532-7.262-32.93-15.64-11.926-9.57-25.418-20.422-47.863-20.422-22.985 0-36.149 21.457-47.743 40.394-9.984 16.301-19.433 31.692-33.05 31.692-12.63 0-19.809-13.246-28.102-28.598-11.016-20.383-23.52-43.488-53.062-43.488-32.024 0-48.735 25.129-62.145 45.347-8.582 12.914-16.008 24.098-25.254 26.903-1.812.535-2.844 2.476-2.27 4.25a3.399 3.399 0 003.262 2.476c.328 0 .66-.082.989-.164 11.636-3.508 20.054-16.219 29.007-29.668 13.164-19.808 28.063-42.297 56.41-42.297 25.458 0 36.434 20.301 47.04 39.903 8.953 16.547 17.41 32.183 34.125 32.183 17.453 0 27.851-16.957 38.867-34.949 11.226-18.238 22.82-37.137 41.926-37.137 20.05 0 31.976 9.614 43.574 18.942 10.437 8.418 21.289 17.12 37.219 17.12 16.503 0 28.964-9.241 41.054-18.194 12.34-9.204 24.059-17.868 40.11-17.868h86.402a3.418 3.418 0 003.426-3.425 3.414 3.414 0 00-3.426-3.422" fill-opacity="1" fill-rule="nonzero"/>
  </g>
  <g clip-path="url(#knxuSwMki8ixe)">
    <path fill="#fff" d="M968.21 385.82H471.489a3.414 3.414 0 00-3.425 3.422 3.418 3.418 0 003.425 3.426h496.723a3.418 3.418 0 003.426-3.426 3.414 3.414 0 00-3.426-3.422" fill-opacity="1" fill-rule="nonzero"/>
  </g>
  <g clip-path="url(#knxuSwMki8ixf)">
    <path fill="#fff" d="M968.21 265.621h-86.4c-17.704 0-32.434-6.77-46.668-13.371-11.887-5.488-23.149-10.645-34.496-10.645-11.516 0-23.149 5.282-35.446 10.891-14.152 6.438-28.8 13.125-45.347 13.125-19.727 0-31.32-10.48-42.543-20.633-10.524-9.574-21.418-19.433-38.25-19.433-16.715 0-27.278 9.738-37.508 19.101-11.227 10.317-22.82 20.965-43.656 20.965-25.707 0-43.247-12.793-58.72-24.098-8.995-6.562-17.495-12.75-26.613-15.765-1.816-.617-3.714.37-4.335 2.148-.575 1.813.375 3.754 2.187 4.332 8.09 2.723 16.176 8.582 24.719 14.813 16.297 11.926 34.824 25.418 62.762 25.418 23.476 0 36.68-12.09 48.277-22.735 10.11-9.285 18.855-17.289 32.887-17.289 14.191 0 23.23 8.168 33.668 17.618 11.597 10.523 24.757 22.406 47.125 22.406 18.03 0 34.039-7.305 48.195-13.739 11.594-5.285 22.57-10.277 32.598-10.277 9.859 0 19.93 4.664 31.648 10.027 14.195 6.563 30.328 13.989 49.516 13.989h86.402a3.418 3.418 0 003.426-3.426 3.414 3.414 0 00-3.426-3.422" fill-opacity="1" fill-rule="nonzero"/>
  </g>
  <g clip-path="url(#knxuSwMki8ixg)">
    <path fill="#fff" d="M968.21 313.691h-86.4c-17.993 0-33.508-4.293-47.164-8.09-11.801-3.257-22.942-6.312-34-6.312-11.227 0-22.739 3.137-34.91 6.48-14.278 3.88-29.051 7.922-45.883 7.922-20.18 0-31.856-6.355-43.204-12.503-10.398-5.653-21.21-11.512-37.59-11.512-16.257 0-26.245 5.488-36.847 11.347-11.309 6.23-23.027 12.668-44.316 12.668-26.122 0-43.782-7.714-59.38-14.566-8.913-3.918-17.37-7.594-26.367-9.406a3.393 3.393 0 00-4.003 2.68 3.433 3.433 0 002.683 4.042c8.254 1.653 16.34 5.2 24.922 8.957 16.219 7.098 34.578 15.141 62.145 15.141 23.023 0 36.101-7.18 47.617-13.531 10.23-5.613 19.062-10.48 33.547-10.48 14.648 0 24.218 5.199 34.328 10.683 11.515 6.273 24.554 13.328 46.465 13.328 17.742 0 33.628-4.332 47.699-8.168 11.719-3.219 22.816-6.23 33.094-6.23 10.148 0 20.835 2.968 32.144 6.066 14.11 3.918 30.121 8.332 49.02 8.332h86.402a3.414 3.414 0 003.426-3.422 3.418 3.418 0 00-3.426-3.426" fill-opacity="1" fill-rule="nonzero"/>
  </g>
  <g clip-path="url(#knxuSwMki8ixh)">
    <path fill="#fff" d="M968.21 352.766h-86.4c-18.239 0-33.88-1.813-47.7-3.422-11.68-1.32-22.656-2.602-33.464-2.602-10.938 0-22.368 1.281-34.415 2.684-14.402 1.648-29.296 3.34-46.378 3.34-20.676 0-32.559-2.723-44.07-5.32-10.688-2.438-20.798-4.708-36.723-4.708-15.766 0-25.586 2.27-35.942 4.625-11.554 2.64-23.437 5.403-45.222 5.403-26.536 0-44.403-3.258-60.122-6.149-8.87-1.61-17.207-3.133-25.996-3.879-1.941-.164-3.55 1.239-3.714 3.137a3.43 3.43 0 003.136 3.715c8.457.703 16.672 2.187 25.336 3.754 16.05 2.93 34.207 6.273 61.36 6.273 22.527 0 34.824-2.847 46.75-5.57 9.984-2.27 19.433-4.457 34.414-4.457 15.14 0 24.879 2.226 35.195 4.539 11.883 2.683 24.18 5.488 45.598 5.488 17.496 0 33.257-1.816 47.164-3.383 11.84-1.363 23.062-2.64 33.629-2.64 10.398 0 21.207 1.238 32.68 2.558 13.987 1.649 29.831 3.465 48.484 3.465h86.402a3.418 3.418 0 003.426-3.426 3.418 3.418 0 00-3.426-3.425" fill-opacity="1" fill-rule="nonzero"/>
  </g>
  <g clip-path="url(#knxuSwMki8ixi)">
    <path fill="#fff" d="M470.496 144.14c9.246 2.805 16.672 13.989 25.254 26.903 13.41 20.219 30.121 45.352 62.145 45.352 29.543 0 42.046-23.11 53.062-43.493 8.293-15.351 15.473-28.597 28.102-28.597 13.617 0 23.066 15.394 33.05 31.691 11.594 18.941 24.758 40.399 47.743 40.399 22.445 0 35.937-10.856 47.863-20.426 10.398-8.38 19.394-15.598 32.93-15.598 14.234 0 25.293 8.168 36.968 16.836 12.711 9.45 25.875 19.188 44.196 19.188h86.402a3.418 3.418 0 003.426-3.426 3.418 3.418 0 00-3.426-3.426h-86.402c-16.051 0-27.77-8.664-40.11-17.867-12.09-8.914-24.55-18.196-41.054-18.196-15.93 0-26.782 8.708-37.22 17.165-11.597 9.285-23.523 18.898-43.573 18.898-19.106 0-30.7-18.898-41.926-37.137-11.016-17.992-21.414-34.949-38.867-34.949-16.715 0-25.172 15.637-34.125 32.184-10.606 19.64-21.582 39.902-47.04 39.902-28.347 0-43.246-22.445-56.41-42.293-8.953-13.453-17.37-26.121-29.007-29.668a3.414 3.414 0 00-4.25 2.309 3.364 3.364 0 002.27 4.25" fill-opacity="1" fill-rule="nonzero"/>
  </g>
  <g clip-path="url(#knxuSwMki8ixj)">
    <path fill="#191b57" d="M576 329.527h287.824v106.79H576zm0 0" fill-opacity="1" fill-rule="nonzero"/>
  </g>
  <path d="M615.096 425.74v-68.532h7.969v61.313h30.234v7.218zm78.702 0h-7.781v-51.376h7.781zm-8.438-65.297c0-1.782.438-3.082 1.313-3.907.875-.832 1.969-1.25 3.281-1.25 1.25 0 2.328.422 3.235 1.266.906.844 1.359 2.14 1.359 3.89s-.453 3.06-1.36 3.922c-.906.856-1.984 1.282-3.234 1.282-1.312 0-2.406-.426-3.281-1.282-.875-.863-1.313-2.171-1.313-3.921zm63.8 59.812a25.91 25.91 0 003.984-.297c1.28-.207 2.296-.422 3.046-.64v5.953c-.843.406-2.09.738-3.734 1-1.637.27-3.11.406-4.422.406-9.937 0-14.906-5.234-14.906-15.703V380.41h-7.36v-3.75l7.36-3.234 3.281-10.969h4.5v11.906h14.906v6.047H740.91v30.235c0 3.093.735 5.468 2.203 7.125 1.47 1.656 3.485 2.484 6.047 2.484zm61.265 6.422c-7.593 0-13.59-2.313-17.984-6.938-4.387-4.625-6.578-11.046-6.578-19.265 0-8.281 2.035-14.86 6.11-19.735 4.081-4.875 9.562-7.312 16.437-7.312 6.437 0 11.531 2.121 15.281 6.36 3.75 4.23 5.625 9.812 5.625 16.75v4.921h-35.39c.156 6.031 1.675 10.61 4.562 13.735 2.895 3.125 6.969 4.687 12.219 4.687 5.531 0 11-1.156 16.406-3.469v6.938c-2.75 1.187-5.355 2.039-7.813 2.547-2.449.52-5.406.781-8.875.781zm-2.109-46.734c-4.125 0-7.418 1.343-9.875 4.03-2.45 2.688-3.89 6.407-4.328 11.157h26.86c0-4.906-1.094-8.66-3.282-11.266-2.187-2.613-5.312-3.921-9.375-3.921zm0 0" fill="#fff" fill-opacity="1"/>
</svg>
