<svg xmlns="http://www.w3.org/2000/svg" zoomAndPan="magnify" viewBox="0 0 1440 960" preserveAspectRatio="xMidYMid meet" version="1.0">
  <defs>
    <clipPath id="cuYGNWnkMYGka">
      <path d="M468.063 596h503.574v48H468.063zm0 0" clip-rule="nonzero"/>
    </clipPath>
    <clipPath id="cuYGNWnkMYGkb">
      <path d="M468.063 548h503.574v32H468.063zm0 0" clip-rule="nonzero"/>
    </clipPath>
    <clipPath id="cuYGNWnkMYGkc">
      <path d="M468.063 509h503.574v18H468.063zm0 0" clip-rule="nonzero"/>
    </clipPath>
    <clipPath id="cuYGNWnkMYGkd">
      <path d="M468.063 652h503.574v79.637H468.063zm0 0" clip-rule="nonzero"/>
    </clipPath>
    <clipPath id="cuYGNWnkMYGke">
      <path d="M468.063 476h503.574v8H468.063zm0 0" clip-rule="nonzero"/>
    </clipPath>
    <clipPath id="cuYGNWnkMYGkf">
      <path d="M468.063 316h503.574v48H468.063zm0 0" clip-rule="nonzero"/>
    </clipPath>
    <clipPath id="cuYGNWnkMYGkg">
      <path d="M468.063 380h503.574v32H468.063zm0 0" clip-rule="nonzero"/>
    </clipPath>
    <clipPath id="cuYGNWnkMYGkh">
      <path d="M468.063 433h503.574v18H468.063zm0 0" clip-rule="nonzero"/>
    </clipPath>
    <clipPath id="cuYGNWnkMYGki">
      <path d="M468.063 228.063h503.574V307H468.063zm0 0" clip-rule="nonzero"/>
    </clipPath>
  </defs>
  <path fill="#fff" fill-opacity="1" d="M-144-96h1728v1152H-144z"/>
  <path fill="#191b57" fill-opacity="1" d="M-144-96h1728v1152H-144z"/>
  <g clip-path="url(#cuYGNWnkMYGka)">
    <path fill="#fff" d="M968.21 596.582h-86.4c-19.188 0-35.32 7.43-49.516 13.988-11.719 5.367-21.79 10.028-31.648 10.028-10.028 0-21.004-4.993-32.598-10.274-14.156-6.437-30.164-13.742-48.195-13.742-22.368 0-35.528 11.926-47.125 22.406-10.438 9.492-19.477 17.66-33.668 17.66-14.032 0-22.778-8.046-32.887-17.289-11.598-10.687-24.8-22.777-48.277-22.777-27.938 0-46.465 13.496-62.762 25.418-8.543 6.23-16.63 12.09-24.719 14.816-1.812.575-2.762 2.516-2.187 4.332a3.448 3.448 0 003.261 2.352c.371 0 .742-.082 1.075-.164 9.117-3.055 17.617-9.246 26.613-15.805 15.472-11.308 33.012-24.097 58.719-24.097 20.835 0 32.43 10.644 43.656 20.96 10.23 9.407 20.793 19.106 37.508 19.106 16.832 0 27.726-9.863 38.25-19.395 11.222-10.148 22.816-20.671 42.543-20.671 16.546 0 31.195 6.683 45.347 13.12 12.297 5.614 23.93 10.895 35.446 10.895 11.347 0 22.609-5.16 34.496-10.648 14.234-6.559 28.964-13.367 46.668-13.367h86.402a3.418 3.418 0 003.426-3.426 3.418 3.418 0 00-3.426-3.426" fill-opacity="1" fill-rule="nonzero"/>
  </g>
  <g clip-path="url(#cuYGNWnkMYGkb)">
    <path fill="#fff" d="M968.21 548.512h-86.4c-18.899 0-34.91 4.414-49.02 8.336-11.309 3.136-21.996 6.066-32.144 6.066-10.278 0-21.375-3.012-33.094-6.23-14.07-3.84-29.957-8.172-47.7-8.172-21.91 0-34.949 7.097-46.464 13.328-10.11 5.531-19.68 10.687-34.328 10.687-14.485 0-23.317-4.828-33.547-10.48-11.516-6.356-24.594-13.535-47.617-13.535-27.567 0-45.926 8.047-62.145 15.144-8.582 3.754-16.668 7.305-24.922 8.953a3.435 3.435 0 00-2.683 4.043c.332 1.61 1.734 2.766 3.343 2.766.207 0 .453-.043.66-.082 8.997-1.816 17.454-5.488 26.368-9.41 15.597-6.809 33.257-14.563 59.379-14.563 21.289 0 33.007 6.434 44.316 12.707 10.601 5.82 20.59 11.348 36.848 11.348 16.379 0 27.191-5.86 37.59-11.555 11.347-6.148 23.023-12.5 43.203-12.5 16.832 0 31.605 4.043 45.882 7.961 12.172 3.301 23.684 6.48 34.91 6.48 11.06 0 22.2-3.097 34-6.355 13.657-3.797 29.172-8.086 47.165-8.086h86.402a3.418 3.418 0 003.426-3.426 3.418 3.418 0 00-3.426-3.425" fill-opacity="1" fill-rule="nonzero"/>
  </g>
  <g clip-path="url(#cuYGNWnkMYGkc)">
    <path fill="#fff" d="M968.21 509.438h-86.4c-18.653 0-34.496 1.855-48.485 3.464-11.472 1.32-22.281 2.559-32.68 2.559-10.566 0-21.789-1.281-33.628-2.64-13.907-1.571-29.668-3.384-47.164-3.384-21.418 0-33.715 2.805-45.598 5.489-10.317 2.351-20.055 4.535-35.195 4.535-14.98 0-24.43-2.145-34.414-4.453-11.926-2.727-24.223-5.57-46.75-5.57-27.153 0-45.31 3.34-61.36 6.269-8.664 1.57-16.879 3.055-25.336 3.754a3.432 3.432 0 00-3.137 3.715 3.452 3.452 0 003.426 3.136h.29c8.788-.742 17.124-2.269 25.995-3.878 15.72-2.848 33.586-6.106 60.122-6.106 21.785 0 33.668 2.723 45.222 5.363 10.356 2.395 20.176 4.621 35.942 4.621 15.925 0 26.035-2.269 36.722-4.703 11.512-2.601 23.395-5.28 44.07-5.28 17.083 0 31.977 1.69 46.38 3.3 12.046 1.402 23.476 2.68 34.414 2.68 10.808 0 21.785-1.278 33.464-2.598 13.82-1.61 29.461-3.383 47.7-3.383h86.402c1.898 0 3.426-1.57 3.426-3.469 0-1.855-1.528-3.422-3.426-3.422" fill-opacity="1" fill-rule="nonzero"/>
  </g>
  <g clip-path="url(#cuYGNWnkMYGkd)">
    <path fill="#fff" d="M968.21 652.66h-86.4c-18.32 0-31.485 9.778-44.196 19.188-11.676 8.664-22.734 16.875-36.968 16.875-13.536 0-22.532-7.262-32.93-15.637-11.926-9.574-25.418-20.426-47.863-20.426-22.985 0-36.149 21.457-47.743 40.395-9.984 16.3-19.433 31.691-33.05 31.691-12.63 0-19.809-13.246-28.102-28.594-11.016-20.386-23.52-43.492-53.062-43.492-32.024 0-48.735 25.13-62.145 45.348-8.582 12.914-16.008 24.097-25.254 26.902-1.812.54-2.844 2.477-2.27 4.25a3.394 3.394 0 003.262 2.477c.328 0 .66-.082.989-.164 11.636-3.508 20.054-16.22 29.007-29.668 13.164-19.809 28.063-42.297 56.41-42.297 25.458 0 36.434 20.304 47.04 39.902 8.953 16.547 17.41 32.188 34.125 32.188 17.453 0 27.851-16.961 38.867-34.953 11.226-18.239 22.82-37.137 41.926-37.137 20.05 0 31.976 9.617 43.574 18.941 10.437 8.418 21.289 17.125 37.219 17.125 16.503 0 28.964-9.242 41.054-18.199 12.34-9.2 24.059-17.867 40.11-17.867h86.402a3.414 3.414 0 003.426-3.422 3.418 3.418 0 00-3.426-3.426" fill-opacity="1" fill-rule="nonzero"/>
  </g>
  <g clip-path="url(#cuYGNWnkMYGke)">
    <path fill="#fff" d="M968.21 476.426H471.489a3.418 3.418 0 00-3.425 3.426 3.414 3.414 0 003.425 3.421h496.723a3.414 3.414 0 003.426-3.421 3.418 3.418 0 00-3.426-3.426" fill-opacity="1" fill-rule="nonzero"/>
  </g>
  <g clip-path="url(#cuYGNWnkMYGkf)">
    <path fill="#fff" d="M968.21 356.227h-86.4c-17.704 0-32.434-6.766-46.668-13.372-11.887-5.488-23.149-10.644-34.496-10.644-11.516 0-23.149 5.281-35.446 10.894-14.152 6.438-28.8 13.122-45.347 13.122-19.727 0-31.32-10.48-42.543-20.633-10.524-9.57-21.418-19.434-38.25-19.434-16.715 0-27.278 9.738-37.508 19.106-11.227 10.316-22.82 20.96-43.656 20.96-25.707 0-43.247-12.792-58.72-24.097-8.995-6.563-17.495-12.75-26.613-15.762-1.816-.62-3.714.371-4.335 2.145-.575 1.816.375 3.754 2.187 4.332 8.09 2.722 16.176 8.582 24.719 14.812 16.297 11.926 34.824 25.418 62.762 25.418 23.476 0 36.68-12.09 48.277-22.734 10.11-9.285 18.855-17.29 32.887-17.29 14.191 0 23.23 8.173 33.668 17.622 11.597 10.52 24.757 22.402 47.125 22.402 18.03 0 34.039-7.3 48.195-13.738 11.594-5.281 22.57-10.274 32.598-10.274 9.859 0 19.93 4.66 31.648 10.024 14.195 6.562 30.328 13.988 49.516 13.988h86.402a3.414 3.414 0 003.426-3.422 3.418 3.418 0 00-3.426-3.425" fill-opacity="1" fill-rule="nonzero"/>
  </g>
  <g clip-path="url(#cuYGNWnkMYGkg)">
    <path fill="#fff" d="M968.21 404.297h-86.4c-17.993 0-33.508-4.29-47.164-8.086-11.801-3.262-22.942-6.313-34-6.313-11.227 0-22.739 3.133-34.91 6.477-14.278 3.879-29.051 7.922-45.883 7.922-20.18 0-31.856-6.356-43.204-12.5-10.398-5.656-21.21-11.516-37.59-11.516-16.257 0-26.245 5.489-36.847 11.348-11.309 6.23-23.027 12.668-44.316 12.668-26.122 0-43.782-7.715-59.38-14.567-8.913-3.918-17.37-7.59-26.367-9.406a3.393 3.393 0 00-4.003 2.684 3.435 3.435 0 002.683 4.043c8.254 1.648 16.34 5.199 24.922 8.953 16.219 7.098 34.578 15.144 62.145 15.144 23.023 0 36.101-7.18 47.617-13.535 10.23-5.613 19.062-10.48 33.547-10.48 14.648 0 24.218 5.199 34.328 10.687 11.515 6.27 24.554 13.328 46.465 13.328 17.742 0 33.628-4.332 47.699-8.171 11.719-3.22 22.816-6.23 33.094-6.23 10.148 0 20.835 2.972 32.144 6.065 14.11 3.918 30.121 8.336 49.02 8.336h86.402a3.418 3.418 0 003.426-3.425 3.418 3.418 0 00-3.426-3.426" fill-opacity="1" fill-rule="nonzero"/>
  </g>
  <g clip-path="url(#cuYGNWnkMYGkh)">
    <path fill="#fff" d="M968.21 443.375h-86.4c-18.239 0-33.88-1.816-47.7-3.426-11.68-1.32-22.656-2.601-33.464-2.601-10.938 0-22.368 1.28-34.415 2.683-14.402 1.653-29.296 3.344-46.378 3.344-20.676 0-32.559-2.723-44.07-5.324-10.688-2.434-20.798-4.703-36.723-4.703-15.766 0-25.586 2.27-35.942 4.62-11.554 2.641-23.437 5.407-45.222 5.407-26.536 0-44.403-3.262-60.122-6.148-8.87-1.61-17.207-3.137-25.996-3.88-1.941-.163-3.55 1.239-3.714 3.137a3.426 3.426 0 003.136 3.711c8.457.703 16.672 2.188 25.336 3.758 16.05 2.93 34.207 6.27 61.36 6.27 22.527 0 34.824-2.848 46.75-5.57 9.984-2.27 19.433-4.458 34.414-4.458 15.14 0 24.879 2.23 35.195 4.54 11.883 2.683 24.18 5.488 45.598 5.488 17.496 0 33.257-1.817 47.164-3.383 11.84-1.363 23.062-2.64 33.629-2.64 10.398 0 21.207 1.238 32.68 2.558 13.987 1.648 29.831 3.465 48.484 3.465h86.402a3.418 3.418 0 003.426-3.426 3.417 3.417 0 00-3.426-3.422" fill-opacity="1" fill-rule="nonzero"/>
  </g>
  <g clip-path="url(#cuYGNWnkMYGki)">
    <path fill="#fff" d="M470.496 234.746c9.246 2.809 16.672 13.988 25.254 26.906C509.16 281.872 525.871 307 557.895 307c29.543 0 42.046-23.11 53.062-43.492 8.293-15.348 15.473-28.594 28.102-28.594 13.617 0 23.066 15.39 33.05 31.688C683.703 285.543 696.867 307 719.852 307c22.445 0 35.937-10.852 47.863-20.426 10.398-8.375 19.394-15.597 32.93-15.597 14.234 0 25.293 8.171 36.968 16.836C850.324 297.262 863.488 307 881.81 307h86.402a3.418 3.418 0 003.426-3.426 3.418 3.418 0 00-3.426-3.426H881.81c-16.051 0-27.77-8.664-40.11-17.867-12.09-8.91-24.55-18.195-41.054-18.195-15.93 0-26.782 8.707-37.22 17.164-11.597 9.285-23.523 18.898-43.573 18.898-19.106 0-30.7-18.898-41.926-37.136-11.016-17.989-21.414-34.95-38.867-34.95-16.715 0-25.172 15.641-34.125 32.188-10.606 19.64-21.582 39.898-47.04 39.898-28.347 0-43.246-22.445-56.41-42.293-8.953-13.453-17.37-26.12-29.007-29.668a3.42 3.42 0 00-4.25 2.31 3.364 3.364 0 002.27 4.25" fill-opacity="1" fill-rule="nonzero"/>
  </g>
</svg>
